<svg width="200" height="202" viewBox="0 0 200 202" fill="none" xmlns="http://www.w3.org/2000/svg">
<path d="M50.2291 165.829C98.2525 175.848 188.763 151.119 153.613 146.458C-37.8137 121.076 76.9087 92.3546 182.293 80.3316C216.505 76.4286 137.605 42.9266 44.3477 58.2895" stroke="#02030C" stroke-width="1.73913"/>
<path d="M103.555 30.3553L77.862 66.1689C76.211 68.4703 77.8558 71.6747 80.6882 71.6747H188.231C190.829 71.6747 192.51 68.9289 191.328 66.6146L161.401 8.00348C160.223 5.69771 157.03 5.44041 155.498 7.52796L127.356 45.8935C126.005 47.7348 123.277 47.7971 121.843 46.0193L109.089 30.1997C107.646 28.4101 104.895 28.4874 103.555 30.3553Z" fill="#E1E8FD" stroke="#02030C" stroke-width="0.869565"/>
<path d="M2.17306 199.066L2.17306 159.719L91.7383 154.743L91.7383 199.066L2.17306 199.066Z" fill="#2A36D8" stroke="#02030C" stroke-width="0.869565"/>
<path d="M2.17383 153.826L91.739 149.274L91.739 127.514L2.17383 122.569L2.17383 153.826Z" fill="#2A36D8" stroke="#02030C" stroke-width="0.869565"/>
<path d="M73.0216 106.461L80.1632 121.631L5.83877 117.12L11.182 103.429L73.0216 106.461Z" fill="#2A36D8" stroke="#02030C" stroke-width="0.869565"/>
<path d="M83.8224 40.0913C83.8224 45.3946 81.6417 51.4097 78.1975 57.4948C74.7604 63.5674 70.1032 69.6432 65.2388 75.0502C60.3753 80.4561 55.3207 85.1756 51.1021 88.5379C48.9917 90.2199 47.1022 91.5528 45.559 92.4612C44.787 92.9155 44.1137 93.2565 43.5512 93.4819C42.9763 93.7124 42.57 93.8003 42.3151 93.8003C42.061 93.8003 41.6614 93.7133 41.0995 93.4847C40.5494 93.261 39.8929 92.9222 39.1413 92.47C37.6387 91.5661 35.8046 90.2387 33.7552 88.562C29.6587 85.2105 24.7499 80.5031 19.9825 75.1039C15.2147 69.7043 10.6028 63.629 7.08953 57.5442C3.56996 51.4486 1.18583 45.3995 0.805876 40.0402C-0.721251 18.4999 19.2944 1.09387 42.3151 1.09387C65.2653 1.09387 83.8224 19.9207 83.8224 40.0913Z" fill="#9EA5FF" stroke="#02030C" stroke-width="1.44701"/>
<path d="M58.8439 43.6042C58.8439 52.1866 51.4648 59.2135 42.274 59.2135C33.0831 59.2135 25.704 52.1866 25.704 43.6042C25.704 35.0219 33.0831 27.995 42.274 27.995C51.4648 27.995 58.8439 35.0219 58.8439 43.6042Z" fill="white" stroke="#02030C" stroke-width="1.44701"/>
<path d="M137.061 201.24L116.685 159.537L165.053 130.358L196.521 173.55C185.375 184.201 152.237 196.448 137.061 201.24Z" fill="#2A36D8"/>
<path d="M116.685 159.537C104.599 139.747 80.3907 106.232 81.3447 105.656C82.5372 104.937 90.995 98.7645 99.1344 112.093L102.834 118.151C104.917 118 109.026 117.068 108.797 114.554C108.625 112.683 105.343 93.7388 96.677 89.7633C88.0106 85.7878 88.0108 85.1254 78.6778 83.1375C69.3447 81.1496 73.3442 73.8609 94.0104 80.4871C99.8594 82.3625 104.073 80.9444 110.359 92.0567C111.004 91.6675 115.576 90.9177 116.9 93.0852C118.339 92.7697 123.95 91.2695 125.822 94.3348C127.905 94.1834 133.198 95.1906 137.704 100.431C142.209 105.671 153.86 118.871 163.192 131.48L116.685 159.537Z" fill="white"/>
<path d="M116.685 159.537L137.061 201.24C152.237 196.448 185.375 184.201 196.521 173.55L165.053 130.358L116.685 159.537ZM116.685 159.537C104.599 139.747 80.3907 106.232 81.3447 105.656C82.5372 104.937 90.995 98.7645 99.1344 112.093L102.834 118.151C104.917 118 109.026 117.068 108.797 114.554C108.625 112.683 105.343 93.7388 96.677 89.7633C88.0106 85.7878 88.0108 85.1254 78.6778 83.1375C69.3447 81.1496 73.3442 73.8609 94.0104 80.4871C99.8594 82.3625 104.073 80.9444 110.359 92.0567M116.685 159.537L163.192 131.48C153.86 118.871 142.209 105.671 137.704 100.431C133.198 95.1906 127.905 94.1834 125.822 94.3348M110.359 92.0567C113.189 97.0596 115.952 101.945 118.049 105.656L110.359 92.0567ZM110.359 92.0567C111.004 91.6675 115.576 90.9177 116.9 93.0852M116.9 93.0852L123.559 103.99M116.9 93.0852C118.339 92.7697 123.95 91.2695 125.822 94.3348M125.822 94.3348C127.302 96.7581 130.412 100.961 131.001 102.816L125.822 94.3348Z" stroke="#02030C" stroke-width="0.869565" stroke-linejoin="round"/>
</svg>
