<svg width="202" height="201" viewBox="0 0 202 201" fill="none" xmlns="http://www.w3.org/2000/svg">
<path d="M108.568 181.849C59.752 181.849 11.75 169.722 11.75 139.809C11.75 118.236 28.0219 115.556 49.1753 118.789C71.6912 122.231 182.712 135.436 144.366 115.556C88.2284 86.4507 151.688 92.9182 186.673 79.9829C217.832 68.4619 155.757 42.7936 88.2283 51.6867" stroke="#02030C" stroke-width="2.5"/>
<path d="M5.69061 94.1171L0.339356 15.4545C0.151935 12.6995 2.23342 10.3141 4.98848 10.1267L126.124 1.88609C128.879 1.69867 131.265 3.78015 131.452 6.5352L136.803 85.1978C136.991 87.9528 134.909 90.3382 132.154 90.5256L11.0184 98.7662C8.26338 98.9537 5.87803 96.8722 5.69061 94.1171Z" fill="#E1E8FD"/>
<circle cx="26.113" cy="32.3755" r="11.1055" transform="rotate(-3.89172 26.113 32.3755)" fill="#2A36D8"/>
<path d="M38.3876 48.9734L17.9294 81.9897C15.7844 85.4513 18.456 89.8881 22.519 89.6117L123.839 82.7191C127.566 82.4656 129.709 78.3624 127.787 75.1586L96.6791 23.3001C94.7654 20.1098 90.1621 20.0523 88.1693 23.1937L65.2092 59.3875C63.4516 62.1582 59.5467 62.5135 57.3178 60.1056L46.3071 48.2105C44.0633 45.7865 40.1274 46.1657 38.3876 48.9734Z" fill="#9EA5FF"/>
<rect x="43.9434" y="3.76221" width="49.975" height="11.1012" rx="1.25" transform="rotate(-3.89172 43.9434 3.76221)" fill="#02030C"/>
<path d="M79.4786 63.8815C79.198 69.2522 86.3288 99.9593 90.3112 114.686L96.2213 81.1391C89.4609 77.143 82.4973 67.999 79.4786 63.8815Z" fill="white" stroke="#02030C" stroke-width="1.25" stroke-linecap="round" stroke-linejoin="round"/>
<path d="M138.175 21.4905L70.7166 99.406L90.4676 115.485L160.186 36.9793C155.97 35.8087 144.697 28.8275 138.175 21.4905Z" fill="#9EA5FF"/>
<path d="M70.7166 99.406L70.2441 98.9969L69.8224 99.484L70.322 99.8907L70.7166 99.406ZM138.175 21.4905L138.642 21.0753C138.523 20.9408 138.351 20.8644 138.171 20.8655C137.991 20.8667 137.82 20.9454 137.702 21.0814L138.175 21.4905ZM160.186 36.9793L160.653 37.3943C160.796 37.233 160.846 37.0093 160.785 36.8024C160.724 36.5955 160.561 36.4348 160.353 36.377L160.186 36.9793ZM90.4676 115.485L90.073 115.97L90.5373 116.348L90.9349 115.9L90.4676 115.485ZM71.1891 99.8151L138.647 21.8996L137.702 21.0814L70.2441 98.9969L71.1891 99.8151ZM137.708 21.9058C141.015 25.6263 145.509 29.2391 149.695 32.0653C153.865 34.8799 157.807 36.9675 160.018 37.5815L160.353 36.377C158.349 35.8205 154.547 33.8322 150.395 31.0293C146.26 28.238 141.857 24.6917 138.642 21.0753L137.708 21.9058ZM159.718 36.5642L90.0002 115.07L90.9349 115.9L160.653 37.3943L159.718 36.5642ZM90.8621 115L71.1112 98.9213L70.322 99.8907L90.073 115.97L90.8621 115Z" fill="#02030C"/>
<path d="M150.949 193.446L64.5488 195.449C65.2467 181.989 84.7969 116.525 92.6036 114.157C100.41 111.789 136.687 111.316 137.309 114.524C137.806 117.091 146.609 168.208 150.949 193.446Z" fill="#2A36D8" stroke="#02030C" stroke-width="1.25"/>
<path d="M147.603 67.7862C145.652 74.8119 137.699 100.729 133.966 112.809C118.119 109.922 98.793 112.754 91.1106 114.531L134.664 65.3285C130.612 65.8427 121.39 66.2586 116.925 63.8078C111.343 60.7445 127.384 49.307 136.341 48.389C145.299 47.471 150.042 59.0041 147.603 67.7862Z" fill="white" stroke="#02030C" stroke-width="1.25"/>
<path d="M110.209 29.4031C114.175 29.2935 126.083 42.6396 131.541 49.3263C129.141 49.7949 113.276 57.8758 116.769 63.008C120.263 68.1402 128.596 64.0217 124.107 66.5591C119.619 69.0965 116.263 68.9212 113.706 68.5896C113.111 68.5124 111.84 67.3281 110.212 65.5479C111.937 67.745 113.368 69.6788 114.175 70.99C117.824 76.9223 113.18 78.6596 108.867 77.8403C107.855 77.648 106.072 76.4053 103.929 74.6236C106.279 76.9495 108.012 78.8122 108.379 79.5968C109.804 82.641 108.829 86.1539 103.716 85.4908C98.6027 84.8277 78.5393 67.1487 79.3586 62.8357C80.014 59.3854 85.2909 59.1858 87.8474 59.5174C86.312 57.3253 83.8188 52.4961 86.1293 50.7161C89.7464 47.9294 93.9895 48.7281 96.5981 49.3263C93.1044 44.1942 94.4324 41.1192 97.213 39.4157C99.859 37.7947 104.03 40.2998 105.839 41.0542C103.12 35.3491 105.252 29.5402 110.209 29.4031Z" fill="white"/>
<path d="M105.839 41.0542C103.12 35.3491 105.252 29.5402 110.209 29.4031C114.175 29.2935 126.083 42.6396 131.541 49.3263C129.141 49.7949 113.276 57.8758 116.769 63.008C120.263 68.1402 128.596 64.0217 124.107 66.5591C119.619 69.0965 116.263 68.9212 113.706 68.5896C111.661 68.3244 101.639 54.9908 96.5981 49.3263M105.839 41.0542C104.03 40.2998 99.859 37.7947 97.213 39.4157C94.4324 41.1192 93.1044 44.1942 96.5981 49.3263M105.839 41.0542C115.348 47.5774 118.534 54.5742 119.424 55.7295M96.5981 49.3263C93.9895 48.7281 89.7464 47.9294 86.1293 50.7161C83.8188 52.4961 86.312 57.3253 87.8474 59.5174M96.5981 49.3263C100.15 53.3396 111.255 66.2441 114.175 70.99C117.824 76.9223 113.18 78.6596 108.867 77.8403C105.417 77.1849 93.0277 64.3304 87.8474 59.5174M87.8474 59.5174C85.2909 59.1858 80.014 59.3854 79.3586 62.8357C78.5393 67.1487 98.6027 84.8277 103.716 85.4908C108.829 86.1539 109.804 82.641 108.379 79.5968C107.239 77.1614 92.9414 64.3372 87.8474 59.5174Z" stroke="#02030C" stroke-width="1.25" stroke-linecap="round" stroke-linejoin="round"/>
<path d="M169.967 14.1536L160.184 36.9799C151.706 35.0233 141.706 26.382 138.174 21.4907C146.127 16.0359 157.655 9.7787 161.687 8.08209C164.947 6.7101 167.15 12.4886 169.967 14.1536Z" fill="#E1E8FD" stroke="#02030C" stroke-width="1.25" stroke-linecap="round" stroke-linejoin="round"/>
<path d="M173.228 2.74023L160.999 8.44683C162.904 11.3974 167.943 13.7177 169.967 14.1534L173.228 2.74023Z" fill="#2A36D8" stroke="#02030C" stroke-width="1.25" stroke-linejoin="round"/>
<path d="M140.239 99.4492L157.881 130.026L189.039 113.399L171.357 143.952L201.348 162.599L166.024 162.575L164.857 197.849L147.215 167.273L116.057 183.9L133.739 153.347L103.748 134.7L139.072 134.723L140.239 99.4492Z" fill="#9EA5FF"/>
<circle cx="48.633" cy="138.038" r="8.96739" transform="rotate(-5.27694 48.633 138.038)" fill="#2A36D8"/>
<path d="M49.5195 138.775L51.6188 161.504" stroke="#2A36D8" stroke-width="2.72727" stroke-linecap="round" stroke-linejoin="round"/>
<circle cx="188.064" cy="32.7779" r="6.43586" transform="rotate(8.71761 188.064 32.7779)" fill="#2A36D8"/>
<path d="M187.873 37.6926L186.513 50.3345" stroke="#2A36D8" stroke-width="2.72727" stroke-linecap="round" stroke-linejoin="round"/>
</svg>
