<svg width="201" height="201" viewBox="0 0 201 201" fill="none" xmlns="http://www.w3.org/2000/svg">
<path d="M0 152.175V6.25933L186.4 0.370361V150.212L0 152.175Z" fill="#E1E8FD"/>
<path d="M0 23.9669V6.43805L186.4 0.370361V18.5734L0 23.9669Z" fill="#9EA5FF"/>
<path d="M119.201 123.859C117.199 123.201 40.5242 119.606 49.1081 99.5011C59.7887 74.4853 101.177 106.085 166.597 78.4355C180.763 72.4484 166.597 -6.54829 61.7914 47.4944C46.471 55.3942 38.4272 50.786 18.4004 44.2028" stroke="#02030C" stroke-width="2"/>
<path d="M128.223 15.3149H141.499M149.914 6.66284V15.3149H161.2V6.66284H149.914Z" stroke="#02030C" stroke-linecap="round" stroke-linejoin="round"/>
<path d="M169.199 6.13844L180.399 14.6594M169.199 15.3149L180.399 3.5166" stroke="#02030C" stroke-linecap="round" stroke-linejoin="round"/>
<path d="M50.4004 136.444V130.882L88.8004 127.792V132.118L50.4004 136.444Z" fill="#9EA5FF" stroke="#02030C" stroke-width="0.81733"/>
<path d="M118.4 133.924V98.2186C118.4 97.3867 119.025 96.6874 119.852 96.5943L169.39 91.013C170.307 90.9096 171.128 91.5862 171.202 92.5066L174.267 130.696C174.34 131.61 173.648 132.405 172.733 132.459L120.131 135.556C119.192 135.611 118.4 134.864 118.4 133.924Z" stroke="#02030C"/>
<path d="M135.917 106.779L129.734 120.67L127.41 126.182C126.943 127.292 127.795 128.51 128.997 128.45L163.779 126.731C164.987 126.671 165.714 125.364 165.127 124.306L163.5 121.37L157.213 110.668C156.566 109.566 154.961 109.6 154.361 110.728L150.294 118.366C149.727 119.431 148.24 119.536 147.53 118.56L138.732 106.481C137.991 105.464 136.429 105.63 135.917 106.779Z" fill="#9EA5FF"/>
<circle cx="127.5" cy="104.549" r="3.5" fill="#2A36D8"/>
<path d="M88.7996 116.971L88.1343 105.768L21.5996 118.289V130.151L88.7996 116.971Z" fill="#9EA5FF" stroke="#02030C" stroke-width="0.81733"/>
<rect x="0.45021" y="0.36402" width="36.5091" height="25.4061" transform="matrix(0.994629 -0.103502 0.107032 0.994256 26.6627 74.524)" fill="#9EA5FF" stroke="#02030C" stroke-width="0.81733"/>
<path d="M73.0017 70.514L82.8051 49.6522L101.562 53.5115L88.2106 75.7692L73.0017 70.514Z" fill="#9EA5FF" stroke="#02030C" stroke-width="0.81733"/>
<path d="M197.672 90.824C197.672 90.824 160.867 69.8175 129.03 70.6669C117.057 70.9863 122.729 41.2712 134.707 41.2712C156.693 41.2712 173.073 44.6212 189.785 53.8694C206.497 63.1177 197.672 87.4548 197.672 90.824Z" fill="#2A36D8" stroke="#02030C" stroke-width="2" stroke-linejoin="round"/>
<path d="M148.144 195.634L146.266 167.596L180.494 162.192L188.322 193.583C179.523 197.033 157.871 196.388 148.144 195.634Z" fill="#2A36D8" stroke="#02030C" stroke-linejoin="round"/>
<path d="M146.267 167.596C144.004 153.742 139.647 126.008 140.322 125.901C141.166 125.768 145.801 127.646 147.325 136.976L148.018 141.217C149.236 141.605 151.784 142.015 152.237 140.551C152.804 138.722 149.631 111.346 150.904 108.535C152.176 105.724 154.161 112.577 154.266 113.225C154.478 114.519 157.362 120.61 158.35 128.275C158.806 128.203 161.575 128.82 161.823 130.337C162.713 130.487 166.246 130.918 166.596 133.064C167.814 133.452 170.584 135.218 171.924 139.183C173.264 143.148 176.811 153.203 179.179 162.4L146.267 167.596Z" fill="white"/>
<path d="M158.35 128.275C157.362 120.61 154.478 114.519 154.266 113.225C154.161 112.577 152.176 105.724 150.904 108.535C149.631 111.346 152.804 138.722 152.237 140.551C151.784 142.015 149.236 141.605 148.018 141.217C148.295 142.914 148.544 144.441 147.325 136.976C145.801 127.646 141.166 125.768 140.322 125.901C139.647 126.008 144.004 153.742 146.267 167.596L179.179 162.4C176.811 153.203 173.264 143.148 171.924 139.183C170.584 135.218 167.814 133.452 166.596 133.064M158.35 128.275C158.794 131.726 159.227 135.097 159.555 137.656L158.35 128.275ZM158.35 128.275C158.806 128.203 161.575 128.82 161.823 130.337M161.823 130.337C161.961 131.185 162.515 134.578 163.069 137.971L161.823 130.337ZM161.823 130.337C162.713 130.487 166.246 130.918 166.596 133.064M166.596 133.064C166.873 134.76 167.663 137.826 167.566 139.001L166.596 133.064Z" stroke="#02030C" stroke-linejoin="round"/>
<path d="M136 70.8593C121.867 70.8593 94.7513 71.5356 94.7513 70.8593C94.7513 70.0139 94.172 65.7869 103.691 65.7869C106.002 65.7869 108.017 65.7676 109.748 64.9319C110.613 64.0865 110.267 63.3907 108.883 62.7144C108 62.283 99.0712 59.8322 95.3236 60.1686C93.0138 60.3759 84.4803 66.0689 83.2089 65.2409C80.6129 63.5501 85.0309 59.7013 85.8049 59.3232C90.9969 56.787 94.4584 54.7873 97.6335 54.7873C97.6335 54.3299 99.2606 50.57 100.809 50.57C101.097 49.7246 102.081 46.3431 104.27 46.3431C104.847 45.2159 107.179 43.3618 111.193 42.1162C116.671 40.4157 126.482 42.1163 136 41.2709L136 70.8593Z" fill="white"/>
<path d="M97.6335 54.7873C94.4584 54.7873 90.9969 56.787 85.8049 59.3232C85.0309 59.7013 80.6129 63.5501 83.2089 65.2409C84.4803 66.0689 93.0138 60.3759 95.3236 60.1686C99.0712 59.8322 108 62.283 108.883 62.7144C110.267 63.3907 110.613 64.0865 109.748 64.9319C108.017 65.7676 106.002 65.7869 103.691 65.7869C94.172 65.7869 94.7513 70.0139 94.7513 70.8593C94.7513 71.5356 121.867 70.8593 136 70.8593L136 41.2709C126.482 42.1163 116.671 40.4157 111.193 42.1162C107.179 43.3618 104.847 45.2159 104.27 46.3431M97.6335 54.7873C101.136 54.9038 104.555 55.0184 107.152 55.1059L97.6335 54.7873ZM97.6335 54.7873C97.6335 54.3299 99.2606 50.57 100.809 50.57M100.809 50.57C101.674 50.57 105.135 50.57 108.597 50.57L100.809 50.57ZM100.809 50.57C101.097 49.7246 102.081 46.3431 104.27 46.3431M104.27 46.3431C106.001 46.3431 109.174 46.0613 110.327 46.3431L104.27 46.3431Z" stroke="#02030C" stroke-width="2" stroke-linejoin="round"/>
<path d="M44.9298 122.017C41.9875 122.017 26.6031 150.203 15.6016 169.044C20.5968 174.609 46.5247 182.377 59.3103 185.565C60.2023 177.739 58.9473 169.334 74.1115 154.051C78.5768 149.551 77.6796 146.357 75.0035 146.357C73.2195 146.357 68.7594 147.095 65.1914 148.834C64.063 149.384 59.8277 150.85 66.0718 143.894C72.3159 136.937 83.02 124.72 76.7759 124.72C72.2275 124.72 59.8277 143.894 58.9356 143.894C58.0436 143.894 56.2596 143.894 60.7197 136.937C65.1797 129.981 72.0725 119.508 67.6124 118.638C65.6566 118.257 58.9356 128.242 56.2596 132.589C54.1188 136.068 51.7995 138.676 50.0155 139.546C50.9075 136.937 60.9361 119.906 57.1516 118.676C54.4756 117.807 45.8528 132.01 41.0954 138.676C44.0687 132.01 50.2819 122.017 44.9298 122.017Z" fill="white" stroke="#02030C" stroke-linejoin="round"/>
<path d="M17.6637 164.592C16.9531 164.592 11.1074 171.129 6.66602 179.46C11.1074 191.525 55.9545 198.078 56.8428 196.355C57.5534 194.976 59.5922 186.218 59.5922 182.839C53.3743 182.839 18.552 164.592 17.6637 164.592Z" fill="#2A36D8" stroke="#02030C" stroke-linejoin="round"/>
<path d="M8 46.4194L12 27.8997L60 36.4981L54.6667 57.0021L8 46.4194Z" fill="#9EA5FF" stroke="#02030C" stroke-width="0.81733"/>
</svg>
