<svg width="502" height="106" viewBox="0 0 502 106" fill="none" xmlns="http://www.w3.org/2000/svg">
<g clip-path="url(#clip0_837_3732)">
<path d="M486 0H16C7.16344 0 0 7.16344 0 16V90C0 98.8366 7.16344 106 16 106H486C494.837 106 502 98.8366 502 90V16C502 7.16344 494.837 0 486 0Z" fill="#FAFAFA"/>
<path d="M99.1949 56.8737C99.4683 56.5179 99.7948 56.2229 100.178 55.918C100.288 55.8305 100.415 55.7332 100.55 55.6297C100.835 55.4108 101.157 55.1643 101.428 54.9252C101.866 54.5401 102.307 54.0698 102.642 53.4396C102.98 52.8043 103.182 52.0628 103.221 51.1688C103.254 50.4009 103 49.6511 102.702 49.0002C102.66 48.9096 102.617 48.8185 102.572 48.7271L105.589 51.7441C106.366 53.627 106.981 55.5906 106.791 57.1109C106.699 57.8449 106.425 58.423 105.913 58.8633C105.381 59.3199 104.483 59.7227 102.973 59.8696C100.543 60.1058 99.4869 59.4066 99.0979 58.8411C98.6941 58.254 98.7459 57.458 99.1949 56.8737ZM106.466 43.0474L101.612 39.0027C102.576 38.2491 103.948 37.4344 105.647 36.9869C107.951 36.38 110.925 36.4285 114.429 38.3356C114.454 38.3496 114.465 38.3615 114.465 38.3615L114.466 38.3625L114.467 38.3646C114.467 38.3646 114.468 38.3698 114.469 38.3746C114.47 38.3844 114.47 38.3999 114.466 38.4203C114.448 38.5124 114.373 38.6179 114.233 38.6591C110.535 39.7511 108.242 41.3921 106.466 43.0474Z" fill="#2A36D8" stroke="#2A36D8" stroke-width="2.19887" stroke-linecap="round" stroke-linejoin="round"/>
<path d="M87.8965 26.8657L132.907 72.0091" stroke="#2A36D8" stroke-width="3.2983" stroke-linecap="round"/>
<path d="M114.151 61.6608C112.442 63.9737 112.631 64.3858 112.501 67.6597C112.21 74.9677 106.987 79.4077 99.4176 77.506C93.3616 75.9846 93.3307 71.0577 92.6756 66.4521C92.4594 62.7704 89.9801 49.5615 91.7753 38.8613M119.478 56.2324C123.897 51.2779 127.981 45.4915 124.65 36.312C119.466 22.0303 101.689 24.3058 95.2116 31.5597" stroke="#2A36D8" stroke-width="3.2983" stroke-linecap="round" stroke-linejoin="round"/>
<mask id="mask0_837_3732" style="mask-type:luminance" maskUnits="userSpaceOnUse" x="176" y="25" width="55" height="56">
<path d="M231 25.833H176.666V80.1673H231V25.833Z" fill="white"/>
</mask>
<g mask="url(#mask0_837_3732)">
<path d="M209.499 47.3349C211.598 43.9446 211.599 43.9428 213.862 40.5487C214.534 39.5409 209.496 36.4022 206.547 34.8887V35.8345C201.372 39.7155 196.657 47.9661 198.176 48.4724C201.572 49.6045 203.836 50.7364 208.364 56.3962C208.364 55.426 204.59 55.2643 209.496 47.3405L209.499 47.3349Z" fill="#2A36D8"/>
<path d="M189.119 34.8887C193.93 33.0855 195.07 32.625 198.175 32.625C199.683 32.625 204.071 33.6183 206.546 34.8887M206.546 34.8887C209.495 36.4022 214.533 39.5409 213.861 40.5488C211.597 43.9446 211.597 43.9446 209.495 47.3405C204.589 55.2643 208.363 55.426 208.363 56.3962M206.546 34.8887V35.8345C201.371 39.7155 196.656 47.9661 198.175 48.4724C201.571 49.6045 203.835 50.7364 208.363 56.3962M208.363 56.3962C212.459 54.887 221.137 52.3212 223.078 54.1323C224.387 54.7869 225.504 67.2307 225.504 71.1117" stroke="#2A36D8" stroke-width="3.2983" stroke-linecap="round" stroke-linejoin="round"/>
<path d="M218.453 36.9586C221.526 36.9586 224.016 34.4681 224.016 31.3958C224.016 28.3236 221.526 25.833 218.453 25.833C215.381 25.833 212.891 28.3236 212.891 31.3958C212.891 34.4681 215.381 36.9586 218.453 36.9586Z" fill="#2A36D8"/>
<path fill-rule="evenodd" clip-rule="evenodd" d="M208.512 72.6346C210.324 69.9338 211.381 66.6843 211.381 63.188C211.381 53.8105 203.779 46.2085 194.401 46.2085C190.905 46.2085 187.655 47.2653 184.955 49.0768L187.343 51.4655C189.404 50.2222 191.819 49.5068 194.401 49.5068C201.957 49.5068 208.082 55.6321 208.082 63.188C208.082 65.7701 207.367 68.1852 206.124 70.2459L208.512 72.6346ZM206.408 75.1943L204.075 72.862C201.6 75.3378 198.179 76.8691 194.401 76.8691C186.845 76.8691 180.72 70.7439 180.72 63.188C180.72 59.41 182.251 55.9897 184.727 53.5139L182.395 51.1817C179.322 54.2543 177.422 58.4992 177.422 63.188C177.422 72.5655 185.024 80.1674 194.401 80.1674C199.09 80.1674 203.335 78.2669 206.408 75.1943Z" fill="#2A36D8"/>
</g>
<path fill-rule="evenodd" clip-rule="evenodd" d="M306.629 60.992C309.081 58.4262 310.587 54.9488 310.587 51.1198C310.587 45.2517 307.05 40.2096 301.991 38.0083C312.584 40.5055 323.25 50.9607 323.766 55.872C323.791 56.1122 323.749 56.3482 323.657 56.5717C322.366 59.7274 317.913 63.6267 312.841 67.114C312.81 67.1348 312.769 67.1311 312.743 67.1051L306.629 60.992ZM283.199 45.3701C282.425 47.1294 281.995 49.0744 281.995 51.1198C281.995 59.0134 288.396 65.4124 296.291 65.4124C298.325 65.4124 300.26 64.9877 302.012 64.2222C302.674 64.8672 303.308 65.4833 303.904 66.0633L303.905 66.0635C305.931 68.0345 307.53 69.589 308.389 70.4483C304.201 72.502 301.668 72.6474 297.393 72.6474C284.073 72.6474 271.048 61.4136 271 56.1779C271 52.8329 274.776 48.4515 281.997 44.0621C282.373 44.4774 282.774 44.9144 283.199 45.3701Z" fill="#2A36D8"/>
<path d="M301.946 55.6165C303.045 53.4178 302.884 50.0204 300.846 47.9204C298.809 45.8205 295.349 44.6221 292.051 46.8212M296.286 58.8156C291.046 59.9151 287.491 54.4179 288.59 51.1196" stroke="#2A36D8" stroke-width="3.2983" stroke-linecap="round" stroke-linejoin="round"/>
<path d="M273.197 28.0317L322.672 77.5063" stroke="#2A36D8" stroke-width="3.2983" stroke-linecap="round"/>
<path d="M388.614 80.1672C388.614 76.702 388.507 74.7816 388.507 73.1147C388.477 68.0445 380.792 73.2622 376.262 69.3941C373.221 66.7964 376.262 59.6855 376.262 57.1193C376.262 55.5905 367.971 56.4641 367.282 53.4685C366.306 49.2258 375.151 44.8358 376.262 42.6579C377.374 40.4801 376.291 25.4959 401.379 27.9845C412.37 29.0747 418.969 37.5245 418.29 48.5885C417.611 59.6526 410.197 63.8809 408.475 68.1891C407.329 71.0545 407.384 77.1752 407.384 80.1672" stroke="#2A36D8" stroke-width="3.29753" stroke-linecap="round" stroke-linejoin="round"/>
<path d="M409.751 38.3206C407.88 35.8136 401.786 36.7883 396.139 40.4978C390.493 44.2072 387.433 49.2467 389.303 51.7537C391.174 54.2608 397.268 53.2861 402.915 49.5766C408.561 45.8671 411.622 40.8277 409.751 38.3206Z" fill="#2A36D8"/>
<path d="M389.304 38.3203C391.018 36.0233 396.985 37.1684 402.631 40.8778C408.277 44.5873 411.465 49.4565 409.751 51.7535C408.036 54.0505 402.07 52.9054 396.423 49.196C390.777 45.4865 387.589 40.6173 389.304 38.3203Z" fill="#2A36D8"/>
<path d="M399.525 33.3276C402.513 33.3276 404.936 38.5704 404.936 45.0376C404.936 51.5049 402.513 56.7476 399.525 56.7476C396.536 56.7476 394.113 51.5049 394.113 45.0376C394.113 38.5704 396.536 33.3276 399.525 33.3276Z" fill="#2A36D8"/>
</g>
<defs>
<clipPath id="clip0_837_3732">
<rect width="502" height="106" fill="white"/>
</clipPath>
</defs>
</svg>
