<svg width="44" height="41" viewBox="0 0 44 41" fill="none" xmlns="http://www.w3.org/2000/svg">
<path d="M6.03762 35.9645L7.30885 27.0659C7.30885 27.0659 10.8239 28.0385 12.3938 29.6084C13.9637 31.1783 14.9362 34.6933 14.9362 34.6933L6.03762 35.9645Z" fill="#02030C"/>
<path d="M1.77344 39.3704L41.7734 39.3704" stroke="#02030C" stroke-width="2.5" stroke-linecap="round" stroke-linejoin="round"/>
<path fill-rule="evenodd" clip-rule="evenodd" d="M34.0013 0.370117L41.6286 7.99748L38.7694 10.8568L31.142 3.22942L34.0013 0.370117ZM29.2351 5.13626L36.8625 12.7636L16.1891 33.437C16.1747 33.1998 16.1472 32.9492 16.0991 32.6838C15.8886 31.5235 15.32 30.2709 14.1036 28.5806C12.6981 26.6276 10.7817 25.8202 9.27979 25.5001C9.1635 25.4753 9.04928 25.4533 8.9375 25.4339L29.2351 5.13626Z" fill="#02030C"/>
</svg>
