<svg width="41" height="41" viewBox="0 0 41 41" fill="none" xmlns="http://www.w3.org/2000/svg">
<circle cx="20.334" cy="20.3704" r="18.75" stroke="#02030C" stroke-width="2.5"/>
<path fill-rule="evenodd" clip-rule="evenodd" d="M24.5 24.537L7 32.8704L16.1667 16.2037L32.8333 7.87036L24.5 24.537ZM19.5008 24.537C21.3418 24.537 22.8341 23.0446 22.8341 21.2037C22.8341 19.3627 21.3418 17.8704 19.5008 17.8704C17.6599 17.8704 16.1675 19.3627 16.1675 21.2037C16.1675 23.0446 17.6599 24.537 19.5008 24.537Z" fill="#02030C"/>
<path d="M7 32.8704L5.90473 32.268C5.64322 32.7434 5.71835 33.3333 6.09068 33.7281C6.46301 34.1228 7.04749 34.2322 7.53742 33.9989L7 32.8704ZM24.5 24.537L25.0374 25.6656C25.289 25.5458 25.4934 25.3453 25.618 25.096L24.5 24.537ZM16.1667 16.2037L15.6076 15.0857C15.3807 15.1991 15.1937 15.379 15.0714 15.6013L16.1667 16.2037ZM32.8333 7.87036L33.9514 8.42938C34.192 7.94814 34.0977 7.36693 33.7172 6.98648C33.3368 6.60603 32.7556 6.51171 32.2743 6.75233L32.8333 7.87036ZM7.53742 33.9989L25.0374 25.6656L23.9626 23.4085L6.46258 31.7418L7.53742 33.9989ZM15.0714 15.6013L5.90473 32.268L8.09527 33.4728L17.2619 16.8061L15.0714 15.6013ZM32.2743 6.75233L15.6076 15.0857L16.7257 17.3217L33.3923 8.9884L32.2743 6.75233ZM25.618 25.096L33.9514 8.42938L31.7153 7.31134L23.382 23.978L25.618 25.096ZM21.5841 21.2037C21.5841 22.3543 20.6514 23.287 19.5008 23.287V25.787C22.0321 25.787 24.0841 23.735 24.0841 21.2037H21.5841ZM19.5008 19.1204C20.6514 19.1204 21.5841 20.0531 21.5841 21.2037H24.0841C24.0841 18.6724 22.0321 16.6204 19.5008 16.6204V19.1204ZM17.4175 21.2037C17.4175 20.0531 18.3502 19.1204 19.5008 19.1204V16.6204C16.9695 16.6204 14.9175 18.6724 14.9175 21.2037H17.4175ZM19.5008 23.287C18.3502 23.287 17.4175 22.3543 17.4175 21.2037H14.9175C14.9175 23.735 16.9695 25.787 19.5008 25.787V23.287Z" fill="#02030C"/>
</svg>
