<svg width="79" height="48" viewBox="0 0 79 48" fill="none" xmlns="http://www.w3.org/2000/svg">
<path d="M23.7006 13.7078C23.7006 13.7078 25.7018 14.9641 29.6683 14.7457C32.2305 14.6046 35.4411 13.7622 37.9248 12.9893C40.4847 12.1926 43.2501 12.1689 45.7503 13.1367L47.1306 13.671C48.9471 14.3742 50.9208 14.5694 52.8398 14.2356L55.8746 13.7078" stroke="#02030C" stroke-opacity="0.6" stroke-width="3.35146" stroke-linecap="round" stroke-linejoin="round"/>
<path d="M23.7004 24.1221C23.7004 24.1221 25.7016 25.3784 29.6681 25.16C32.2303 25.0189 35.4409 24.1765 37.9246 23.4036C40.4845 22.6069 43.2499 22.5832 45.7501 23.551L47.1305 24.0853C48.9469 24.7885 50.9206 24.9837 52.8396 24.6499L55.8744 24.1221" stroke="#02030C" stroke-opacity="0.6" stroke-width="3.35146" stroke-linecap="round" stroke-linejoin="round"/>
<path d="M23.7006 34.5362C23.7006 34.5362 25.7018 35.7925 29.6683 35.5741C32.2305 35.433 35.4411 34.5906 37.9248 33.8176C40.4847 33.0209 43.2501 32.9973 45.7503 33.9651L47.1306 34.4994C48.9471 35.2026 50.9208 35.3977 52.8398 35.064L55.8746 34.5362" stroke="#02030C" stroke-opacity="0.6" stroke-width="3.35146" stroke-linecap="round" stroke-linejoin="round"/>
</svg>
