<svg width="41" height="41" viewBox="0 0 41 41" fill="none" xmlns="http://www.w3.org/2000/svg">
<path fill-rule="evenodd" clip-rule="evenodd" d="M40.6672 6.20369C40.6672 9.42535 38.0555 12.037 34.8338 12.037C32.9585 12.037 31.2899 11.1521 30.2228 9.77708L12.0481 19.393C12.2341 19.963 12.3346 20.5716 12.3346 21.2037C12.3346 21.6216 12.2907 22.0293 12.2071 22.4224L29.8874 31.4434C30.9188 29.7979 32.7485 28.7036 34.8338 28.7036C38.0555 28.7036 40.6672 31.3153 40.6672 34.537C40.6672 37.7586 38.0555 40.3703 34.8338 40.3703C31.6122 40.3703 29.0005 37.7586 29.0005 34.537C29.0005 34.2942 29.0153 34.0548 29.0441 33.8198L11.1709 24.7003C10.1069 26.1191 8.41128 27.037 6.5013 27.037C3.27964 27.037 0.667969 24.4254 0.667969 21.2037C0.667969 17.982 3.27964 15.3704 6.5013 15.3704C8.1909 15.3704 9.71273 16.0887 10.778 17.2366L29.1489 7.51689C29.0518 7.09481 29.0005 6.65525 29.0005 6.20369C29.0005 2.98203 31.6122 0.370361 34.8338 0.370361C38.0555 0.370361 40.6672 2.98203 40.6672 6.20369Z" fill="#02030C"/>
</svg>
